<svg width="50" height="50" viewBox="0 0 50 50" fill="none" xmlns="http://www.w3.org/2000/svg">
<g clip-path="url(#clip0_132_72)">
<path d="M3.08191 0.60074C3.08191 0.934518 3.92748 10.7254 4.97332 22.3631C5.99691 33.9786 6.88698 43.8362 6.90923 44.259L6.97599 45.0155L15.988 47.5077L24.9778 49.9999L26.7802 49.5104C27.7593 49.2434 31.7869 48.1308 35.7477 47.0404C41.8892 45.3493 42.935 44.9933 43.0241 44.615C43.1353 44.0809 46.9181 1.20154 46.9181 0.489481V-6.10352e-05H3.08191V0.60074ZM38.8407 10.0578C38.7517 10.5918 38.1731 16.9114 37.5501 24.1432C36.9048 31.3529 36.3707 37.3164 36.3262 37.3609C36.2372 37.4721 25.3115 40.4984 25 40.4984C24.7775 40.4984 18.814 38.874 14.7419 37.7169L13.6071 37.3831L13.34 34.4459C13.2065 32.8215 13.0285 30.8633 12.9395 30.0845L12.806 28.7049H15.5875C18.725 28.7049 18.636 28.6604 18.6582 30.5963C18.6582 31.0858 18.725 31.8424 18.7917 32.2874L18.9253 33.0885L21.9738 33.8896L25 34.6906L28.004 33.8896C29.6507 33.4445 31.0303 33.0663 31.0303 33.0663C31.0525 33.044 31.186 31.7311 31.3196 30.1513C31.4531 28.5491 31.6088 26.9915 31.6756 26.6355L31.7868 26.0347H12.6947L12.5835 25.5229C12.5167 25.2558 12.3832 23.9652 12.2942 22.6301L12.1384 20.2492H32.1874L32.3209 18.736C32.4099 17.9127 32.5434 16.6444 32.6102 15.9323C32.6992 15.02 32.6769 14.6639 32.4989 14.7752C32.3654 14.842 27.6257 14.842 21.9293 14.7529L11.5821 14.6194L11.4486 13.0395C11.3596 12.1717 11.2484 10.9256 11.1816 10.2803L11.0481 9.12321H38.952L38.8407 10.0578Z" fill="#010101"/>
</g>
<defs>
<clipPath id="clip0_132_72">
<rect width="50" height="50" fill="white"/>
</clipPath>
</defs>
</svg>
