<svg width="31" height="30" viewBox="0 0 31 30" fill="none" xmlns="http://www.w3.org/2000/svg">
<g clip-path="url(#clip0_119_12)">
<path fill-rule="evenodd" clip-rule="evenodd" d="M24.6311 0H5.8811C2.77452 0 0.256104 2.51842 0.256104 5.625V24.375C0.256104 27.4816 2.77452 30 5.8811 30H24.6311C27.7377 30 30.2561 27.4816 30.2561 24.375V5.625C30.2561 2.51842 27.7377 0 24.6311 0ZM23.8693 16.1566H21.0627V26.5461H16.3732V16.1566H14.5535V12.6553H16.3732V10.425C16.3732 7.50395 17.589 5.76711 21.0311 5.76711H24.5206V9.25263H22.4916C21.1495 9.25263 21.0627 9.75395 21.0627 10.6855L21.0587 12.6513H24.2482L23.8653 16.1526L23.8693 16.1566Z" fill="black"/>
</g>
<defs>
<clipPath id="clip0_119_12">
<rect width="30" height="30" fill="white" transform="translate(0.256104)"/>
</clipPath>
</defs>
</svg>
