<svg width="26" height="30" viewBox="0 0 26 30" fill="none" xmlns="http://www.w3.org/2000/svg">
<g clip-path="url(#clip0_132_133)">
<path d="M22.4463 10.3098C24.2727 9.31088 25.4854 7.58099 25.4854 5.61963C25.4854 2.52531 22.4609 0.0157471 18.7642 0.0157471H7.22128C3.51 0.0157471 0.500061 2.53749 0.500061 5.61963C0.500061 7.58099 1.7128 9.31088 3.53922 10.3098C1.7128 11.3088 0.500061 13.0387 0.500061 15C0.500061 16.9614 1.7128 18.6913 3.53922 19.6902C1.7128 20.6892 0.500061 22.4191 0.500061 24.3804C0.500061 27.4748 3.53922 29.9843 7.26511 29.9843C11.0348 29.9843 14.1032 27.4382 14.1032 24.3195V19.142C15.3013 20.0435 16.894 20.6039 18.6327 20.6039H18.7788C22.4901 20.6039 25.5001 18.0822 25.5001 15C25.4855 13.0387 24.2727 11.3088 22.4463 10.3098ZM11.8969 24.3195C11.8969 26.4271 9.82209 28.157 7.26511 28.157C4.75196 28.157 2.70637 26.4636 2.70637 24.3804C2.70637 22.2973 4.73735 20.6161 7.22128 20.6039H11.8969V24.3195ZM11.8969 18.7766H7.22128C4.72274 18.7766 2.70637 17.0832 2.70637 15C2.70637 12.9169 4.73735 11.2235 7.23589 11.2235H11.9115V18.7766H11.8969ZM11.8969 9.39616H7.22128C4.72274 9.39616 2.69176 7.70281 2.69176 5.61963C2.69176 3.53645 4.72274 1.8431 7.22128 1.8431H11.8969V9.39616ZM14.0886 1.8431H18.7642C21.2628 1.8431 23.2937 3.53645 23.2937 5.61963C23.2937 7.70281 21.2628 9.39616 18.7642 9.39616H14.0886V1.8431ZM18.7642 18.7766H18.6181C16.1196 18.7766 14.0886 17.0832 14.0886 15C14.0886 12.9169 16.1196 11.2235 18.6181 11.2235H18.7642C21.2628 11.2235 23.2937 12.9169 23.2937 15C23.2937 17.0832 21.2628 18.7766 18.7642 18.7766Z" fill="#010101"/>
</g>
<defs>
<clipPath id="clip0_132_133">
<rect width="25" height="30" fill="white" transform="translate(0.5)"/>
</clipPath>
</defs>
</svg>
