<svg width="36" height="50" viewBox="0 0 36 50" fill="none" xmlns="http://www.w3.org/2000/svg">
<g clip-path="url(#clip0_132_133)">
<path d="M31.2248 17.1831C33.7818 15.5181 35.4796 12.635 35.4796 9.36605C35.4796 4.20885 31.2452 0.0262451 26.0699 0.0262451H9.90976C4.71397 0.0262451 0.500061 4.22916 0.500061 9.36605C0.500061 12.635 2.1979 15.5181 4.75488 17.1831C2.1979 18.848 0.500061 21.7311 0.500061 25.0001C0.500061 28.269 2.1979 31.1521 4.75488 32.8171C2.1979 34.482 0.500061 37.3651 0.500061 40.6341C0.500061 45.7913 4.75488 49.9739 9.97113 49.9739C15.2487 49.9739 19.5445 45.7304 19.5445 40.5326V31.9034C21.2219 33.4059 23.4516 34.3399 25.8858 34.3399H26.0904C31.2861 34.3399 35.5001 30.1369 35.5001 25.0001C35.4796 21.7311 33.7818 18.848 31.2248 17.1831ZM16.4556 40.5326C16.4556 44.0451 13.5509 46.9283 9.97113 46.9283C6.45272 46.9283 3.5889 44.106 3.5889 40.6341C3.5889 37.1621 6.43226 34.3602 9.90976 34.3399H16.4556V40.5326ZM16.4556 31.2943H9.90976C6.41181 31.2943 3.5889 28.472 3.5889 25.0001C3.5889 21.5281 6.43226 18.7058 9.93022 18.7058H16.4761V31.2943H16.4556ZM16.4556 15.6603H9.90976C6.41181 15.6603 3.56844 12.838 3.56844 9.36605C3.56844 5.89408 6.41181 3.07183 9.90976 3.07183H16.4556V15.6603ZM19.524 3.07183H26.0699C29.5679 3.07183 32.4112 5.89408 32.4112 9.36605C32.4112 12.838 29.5679 15.6603 26.0699 15.6603H19.524V3.07183ZM26.0699 31.2943H25.8653C22.3674 31.2943 19.524 28.472 19.524 25.0001C19.524 21.5281 22.3674 18.7058 25.8653 18.7058H26.0699C29.5679 18.7058 32.4112 21.5281 32.4112 25.0001C32.4112 28.472 29.5679 31.2943 26.0699 31.2943Z" fill="#010101"/>
</g>
<defs>
<clipPath id="clip0_132_133">
<rect width="35" height="50" fill="white" transform="translate(0.5)"/>
</clipPath>
</defs>
</svg>
