<svg width="31" height="31" viewBox="0 0 31 31" fill="none" xmlns="http://www.w3.org/2000/svg">
<g clip-path="url(#clip0_119_7)">
<path d="M15.6859 0.512207C7.43472 0.512207 0.743896 7.3889 0.743896 15.872C0.743896 22.6585 5.02522 28.4159 10.9622 30.4469C11.7089 30.5891 11.9831 30.1137 11.9831 29.708C11.9831 29.3418 11.9692 28.1317 11.9628 26.8483C7.80585 27.7775 6.9287 25.0361 6.9287 25.0361C6.24901 23.2607 5.26968 22.7887 5.26968 22.7887C3.91405 21.8353 5.37187 21.8548 5.37187 21.8548C6.87233 21.9633 7.66241 23.4377 7.66241 23.4377C8.99507 25.7859 11.1579 25.107 12.0105 24.7147C12.1446 23.7218 12.5319 23.0443 12.9592 22.6607C9.64042 22.2722 6.15151 20.9552 6.15151 15.0698C6.15151 13.393 6.73522 12.0227 7.69112 10.9471C7.53597 10.5601 7.02456 8.99794 7.83585 6.88223C7.83585 6.88223 9.09058 6.4694 11.946 8.4567C13.1378 8.11626 14.416 7.94569 15.6859 7.9399C16.9557 7.94569 18.235 8.11626 19.4291 8.4567C22.2811 6.4694 23.5341 6.88223 23.5341 6.88223C24.3473 8.99794 23.8357 10.5601 23.6805 10.9471C24.6385 12.0227 25.2183 13.3928 25.2183 15.0698C25.2183 20.9692 21.7228 22.2683 18.3956 22.6485C18.9315 23.1251 19.4091 24.0599 19.4091 25.4929C19.4091 27.548 19.3917 29.2021 19.3917 29.708C19.3917 30.1167 19.6607 30.5957 20.4182 30.4449C26.3518 28.4116 30.6278 22.6562 30.6278 15.872C30.6278 7.3889 23.9379 0.512207 15.6859 0.512207Z" fill="#161614"/>
<path d="M6.34014 22.3925C6.30733 22.4688 6.19038 22.4917 6.08409 22.4394C5.97569 22.3893 5.91475 22.2852 5.94991 22.2086C5.98214 22.13 6.09909 22.1081 6.20725 22.1609C6.31588 22.2109 6.37776 22.3159 6.34014 22.3925ZM7.07514 23.0667C7.00389 23.1346 6.86456 23.103 6.76999 22.9957C6.67225 22.8886 6.65397 22.7455 6.72628 22.6765C6.79975 22.6087 6.93487 22.6403 7.03284 22.7475C7.13057 22.8558 7.14956 22.9981 7.07503 23.0668M7.5794 23.9292C7.48776 23.9946 7.33799 23.9333 7.24553 23.7967C7.15401 23.6602 7.15401 23.4964 7.24753 23.4307C7.34034 23.365 7.48776 23.4241 7.58151 23.5596C7.67292 23.6985 7.67292 23.8623 7.57928 23.9293M8.43206 24.9282C8.35014 25.0209 8.17577 24.9961 8.04803 24.8694C7.91749 24.7456 7.88104 24.5698 7.96319 24.4769C8.04604 24.3839 8.22147 24.4101 8.35014 24.5357C8.47987 24.6593 8.51936 24.8364 8.43206 24.9282ZM9.53409 25.2655C9.49811 25.3857 9.33006 25.4404 9.16085 25.3893C8.99186 25.3367 8.88124 25.1957 8.91534 25.0742C8.9505 24.9531 9.11925 24.8961 9.28975 24.9508C9.4585 25.0032 9.56925 25.1431 9.53409 25.2655ZM10.7885 25.4085C10.7927 25.5352 10.6491 25.6403 10.4715 25.6425C10.2928 25.6465 10.1483 25.544 10.1464 25.4194C10.1464 25.2915 10.2867 25.1874 10.4653 25.1844C10.6429 25.1808 10.7885 25.2826 10.7885 25.4085ZM12.0206 25.3599C12.0419 25.4835 11.9184 25.6105 11.742 25.6442C11.5686 25.6768 11.408 25.6005 11.3859 25.478C11.3643 25.3513 11.4902 25.2244 11.6633 25.1915C11.84 25.16 11.9981 25.2343 12.0206 25.3599Z" fill="#161614"/>
</g>
<defs>
<clipPath id="clip0_119_7">
<rect width="30" height="30" fill="white" transform="translate(0.743896 0.512207)"/>
</clipPath>
</defs>
</svg>
