<svg width="51" height="50" viewBox="0 0 51 50" fill="none" xmlns="http://www.w3.org/2000/svg">
<g clip-path="url(#clip0_146_4)">
<g clip-path="url(#clip1_146_4)">
<path d="M25.4033 0C11.6514 0 0.5 11.4612 0.5 25.5996C0.5 36.9104 7.63555 46.5062 17.5305 49.8912C18.775 50.1281 19.232 49.3359 19.232 48.6597C19.232 48.0493 19.2088 46.0326 19.1982 43.8935C12.2699 45.4421 10.808 40.8731 10.808 40.8731C9.6752 37.9141 8.04297 37.1274 8.04297 37.1274C5.78359 35.5385 8.21328 35.571 8.21328 35.571C10.7141 35.7517 12.0309 38.2092 12.0309 38.2092C14.252 42.1229 17.8566 40.9913 19.2777 40.3374C19.5012 38.6826 20.1467 37.5535 20.8588 36.9142C15.3275 36.2667 9.5127 34.0717 9.5127 24.2627C9.5127 21.4679 10.4855 19.1841 12.0787 17.3914C11.8201 16.7465 10.9678 14.1429 12.3199 10.6167C12.3199 10.6167 14.4111 9.92865 19.1701 13.2408C21.1564 12.6734 23.2869 12.3891 25.4033 12.3795C27.5197 12.3891 29.6518 12.6734 31.642 13.2408C36.3953 9.92865 38.4836 10.6167 38.4836 10.6167C39.8391 14.1429 38.9863 16.7465 38.7277 17.3914C40.3244 19.1841 41.2906 21.4677 41.2906 24.2627C41.2906 34.095 35.4648 36.2601 29.9195 36.8937C30.8127 37.6882 31.6086 39.2462 31.6086 41.6344C31.6086 45.0596 31.5797 47.8164 31.5797 48.6597C31.5797 49.3409 32.0279 50.1392 33.2904 49.8878C43.1799 46.4989 50.3064 36.9066 50.3064 25.5996C50.3064 11.4612 39.1566 0 25.4033 0Z" fill="#010101"/>
<path d="M9.82716 36.4673C9.77247 36.5944 9.57755 36.6325 9.4004 36.5454C9.21974 36.4619 9.11817 36.2884 9.17677 36.1607C9.23048 36.0298 9.4254 35.9933 9.60567 36.0812C9.78673 36.1645 9.88985 36.3396 9.82716 36.4673ZM11.0522 37.5908C10.9334 37.7041 10.7012 37.6515 10.5436 37.4726C10.3807 37.2941 10.3502 37.0556 10.4707 36.9405C10.5932 36.8275 10.8184 36.8803 10.9817 37.059C11.1445 37.2395 11.1762 37.4766 11.052 37.591M11.8926 39.0284C11.7399 39.1374 11.4902 39.0352 11.3361 38.8075C11.1836 38.58 11.1836 38.307 11.3395 38.1976C11.4942 38.0881 11.7399 38.1865 11.8961 38.4124C12.0484 38.6439 12.0484 38.9169 11.8924 39.0286M13.3137 40.6934C13.1772 40.848 12.8865 40.8066 12.6736 40.5954C12.4561 40.389 12.3953 40.0961 12.5322 39.9413C12.6703 39.7863 12.9627 39.8299 13.1772 40.0393C13.3934 40.2453 13.4592 40.5404 13.3137 40.6934ZM15.1504 41.2556C15.0904 41.4559 14.8104 41.5471 14.5283 41.4619C14.2467 41.3742 14.0623 41.1393 14.1192 40.9367C14.1777 40.7349 14.459 40.64 14.7432 40.7311C15.0244 40.8185 15.209 41.0516 15.1504 41.2556ZM17.241 41.4939C17.2481 41.7051 17.0088 41.8802 16.7127 41.884C16.4149 41.8906 16.174 41.7197 16.1709 41.5121C16.1709 41.2989 16.4047 41.1255 16.7024 41.1204C16.9984 41.1144 17.241 41.2841 17.241 41.4939ZM19.2945 41.413C19.3301 41.619 19.1242 41.8306 18.8303 41.8868C18.5412 41.941 18.2736 41.8139 18.2367 41.6097C18.2008 41.3985 18.4106 41.1871 18.699 41.1323C18.9936 41.0797 19.257 41.2036 19.2945 41.413Z" fill="#010101"/>
</g>
</g>
<defs>
<clipPath id="clip0_146_4">
<rect width="50" height="50" fill="white" transform="translate(0.5)"/>
</clipPath>
<clipPath id="clip1_146_4">
<rect width="50" height="50" fill="white" transform="translate(0.5)"/>
</clipPath>
</defs>
</svg>
