<svg width="40" height="50" viewBox="0 0 40 50" fill="none" xmlns="http://www.w3.org/2000/svg">
<g clip-path="url(#clip0_132_78)">
<path d="M6.39071 22.0143C5.07106 22.6838 1.57827 25.6976 0.905545 26.5905C0.206911 27.4835 -1.21333e-05 26.0883 0.724408 23.7722C1.29348 21.9027 2.74257 19.3633 5.17458 17.1868C6.59751 15.9311 9.72828 14.1175 11.6428 13.057C12.031 12.8337 17.0504 10.5456 21.5264 9.40151C21.9146 9.28986 21.0608 10.0991 20.9313 10.5456C20.2586 12.6663 6.83035 21.7631 6.83035 21.7631L6.39071 22.0143ZM25.3039 47.6024C25.5367 49.1092 25.3298 49.2209 23.881 49.4162C22.432 49.6116 21.3712 49.0255 20.9832 48.6349C20.595 48.2441 20.5175 47.3792 20.9055 46.5979C21.1385 46.0956 21.3713 45.9282 21.5008 45.3143C21.6301 44.7284 21.7336 44.5888 21.837 44.3656C21.9404 44.1701 21.9665 43.9747 21.9922 42.6075C22.0182 41.2403 21.9922 38.673 22.1217 37.5848C22.2511 36.4687 26.7272 38.0871 26.7272 38.0871C26.7272 38.0871 25.6663 40.9333 25.3818 41.6309C25.0971 42.3286 25.123 43.6679 25.123 43.9469C25.123 44.226 25.0196 44.784 24.9419 44.8119C24.8643 44.8397 25.2006 45.5653 25.0453 45.9839C24.9417 46.3746 25.2781 47.3792 25.3039 47.6024ZM27.0116 4.93681C26.8563 3.87647 27.0116 1.78344 27.2185 1.44876C27.8655 0.499929 31.2806 0.388415 32.0052 1.50452C32.3156 2.00675 32.2897 3.17875 32.238 3.93222C32.1863 4.68556 32.0052 6.30403 31.9793 6.83434C31.9535 7.22506 28.2018 7.8388 27.3739 6.77845C27.1409 6.49953 27.0116 4.93681 27.0116 4.93681ZM34.6183 44.8956C36.1966 46.1235 37.4126 46.3467 38.2147 46.7932C39.0167 47.2398 38.8098 48.1048 37.4643 48.3559C36.3776 48.579 34.67 48.1326 33.5316 48.1326C32.3933 48.1326 29.8576 48.2722 29.1849 47.7699C28.4088 47.184 28.745 46.0956 28.745 46.0956C28.952 45.4818 29.4694 44.1143 29.3142 42.9982C29.159 41.8821 28.9519 41.2683 28.5638 40.2357C28.1758 39.2033 27.8913 36.6641 28.2535 36.5245C28.6158 36.3849 28.5121 36.5245 28.9779 36.636C29.4436 36.7475 29.9611 36.9151 30.9702 36.9151C31.9793 36.9151 33.0918 36.7475 33.4799 36.664C33.868 36.5803 34.1785 36.4964 34.049 37.3615C33.9197 38.2265 33.5316 39.845 33.5057 41.1007C33.4799 42.3564 33.4799 43.8075 33.5576 44.0586C33.635 44.3097 34.2044 44.5888 34.6183 44.8956Z" fill="#D9D9D9"/>
<path d="M29.0815 7.7273C26.2355 10.3783 20.7244 11.1037 12.5486 14.508C10.4528 15.373 4.86424 17.9681 3.5188 20.6749C8.04659 17.8566 9.72839 21.7353 10.0905 25.7255C10.4268 29.4647 12.1604 31.4181 16.6106 31.3063C21.1902 31.1948 22.5873 34.0689 23.855 37.4454C26.313 24.5256 30.2458 22.0143 32.7812 19.8099C38.1629 15.094 31.5394 6.77846 29.0815 7.7273Z" fill="black" fill-opacity="0.25"/>
<path d="M29.0814 7.72729C22.251 10.2945 15.498 10.9363 7.55499 16.2102C5.66627 17.4659 1.68176 20.312 0.905518 25.7535C3.8032 22.2932 10.5044 17.9403 18.7062 15.1778C22.8459 13.7825 25.8732 12.8618 29.5471 11.327C29.2885 9.54098 29.2885 8.8434 29.0814 7.72729Z" fill="black" fill-opacity="0.25"/>
<path d="M37.8007 23.0188C37.8007 23.0188 37.3091 24.8326 36.3259 25.4187C36.3259 25.4187 35.6015 25.6977 34.1527 24.8327C33.7387 24.5816 33.4283 23.7166 33.454 23.4374C33.48 22.7676 33.868 22.4608 33.868 22.4608C33.868 22.4608 34.2821 21.7073 34.7736 21.7352C35.2653 21.7631 36.0932 21.8468 36.352 21.5956C36.5847 21.3166 37.8525 22.0979 37.8007 23.0188ZM27.2445 5.46698C27.2445 5.46698 27.1411 6.89023 26.9599 7.78304C26.934 7.95058 26.1579 8.03415 25.5886 8.2854C26.6753 11.6339 33.2212 11.6059 34.0751 9.95963C33.6611 9.65276 32.8331 9.17834 32.4451 9.01093C32.0569 8.84338 32.0828 8.87133 32.0569 8.09004C32.0311 7.30862 31.9793 5.8577 31.9275 5.46698C31.8758 5.07627 27.8653 5.07627 27.2445 5.46698Z" fill="#D9D9D9"/>
<path d="M27.5032 5.46696C27.5032 5.46696 27.5032 6.2762 27.4256 7.05748C27.3998 7.42025 27.3739 7.64342 27.3222 7.92248C27.2963 8.09002 28.2018 8.75952 28.4606 10.2385C29.7025 13.2242 32.5745 11.7453 33.7646 10.3222C33.3507 10.0152 32.6779 9.5967 31.9018 9.26188C31.5136 9.09434 31.6948 8.73171 31.669 7.95042C31.6431 7.16914 31.5395 6.02495 31.4878 5.60642C31.4359 5.1879 28.1242 5.07625 27.5032 5.46696Z" fill="black" fill-opacity="0.25"/>
<path d="M27.2444 5.46698C27.2444 5.46698 27.2185 5.96935 27.1411 6.55528C27.4773 6.91791 27.9172 7.42027 28.2537 7.72728C28.4865 7.95058 29.0556 7.92264 29.5732 7.92264C30.0389 7.92264 30.4528 7.97839 30.634 7.86688C31.0481 7.64357 31.6431 7.08559 31.9794 6.66693C31.9536 6.1647 31.9277 5.69029 31.9019 5.46698C31.8758 5.07627 27.8653 5.07627 27.2444 5.46698Z" fill="#D9D9D9"/>
<path d="M29.599 7.58769C29.2884 7.58769 28.9261 7.55988 28.6416 7.50398C28.5121 7.47617 28.3828 7.39247 28.2793 7.33657C28.0982 7.19698 27.917 7.0297 27.7102 6.86216C27.2961 6.52734 27.2703 6.33198 27.2703 6.24842C27.4515 4.49035 27.2185 3.01148 27.2185 3.01148C27.2185 3.01148 27.0374 2.258 28.0205 2.06264C29.0037 1.86729 29.5988 1.83948 29.5988 1.83948C29.5988 1.83948 30.2198 1.83948 31.1771 2.06264C32.1603 2.258 31.9791 3.01148 31.9791 3.01148C31.9791 3.01148 31.7463 4.49035 31.9274 6.24842C31.9274 6.33198 31.9017 6.52734 31.4876 6.86216C31.1253 7.14122 30.8407 7.44809 30.5562 7.50398C30.2715 7.55988 29.9093 7.58769 29.599 7.58769Z" fill="#D9D9D9"/>
<path d="M29.5989 1.11395C27.8914 1.11395 27.5549 1.61618 27.0633 2.1743C26.9599 2.31376 27.0374 3.15094 27.2186 4.93682H27.4515C27.4515 4.93682 27.2961 4.43446 27.322 3.84853C27.3479 3.2626 27.4515 3.29054 27.3737 3.15094C27.2703 2.9834 27.0633 2.70434 27.5291 2.42541C27.9948 2.14635 28.7192 2.64858 29.5989 2.67653C30.4786 2.64858 31.2289 2.14635 31.6946 2.42541C32.1603 2.70434 31.9533 2.9834 31.8499 3.15094C31.7464 3.31835 31.8757 3.26246 31.9016 3.84853C31.9274 4.43446 31.7722 4.93682 31.7722 4.93682H32.005C32.1603 3.15094 32.2638 2.36966 32.1862 2.23006C31.7463 1.61618 31.3065 1.14176 29.5989 1.11395ZM37.8007 23.1025C37.8007 23.1025 37.3091 24.8046 36.3518 25.3906C36.1448 25.2791 36.1707 25.1117 35.9895 24.8604C35.9377 24.7768 35.7566 24.7208 35.6791 24.6372C35.6015 24.5535 35.6274 24.4139 35.498 24.3024C35.3944 24.1908 35.3168 24.2745 35.2133 24.1908C35.1099 24.0793 35.0839 23.9397 35.0064 23.8561C34.9546 23.8002 34.7476 23.7724 34.6959 23.7165C34.5665 23.5769 33.4282 23.3258 33.4799 23.0467C33.5833 22.6281 33.7904 22.3212 33.7904 22.3212C33.7904 22.3212 34.282 21.5399 34.7734 21.5677C35.265 21.5957 35.7308 21.7073 35.9895 21.4562C36.2742 21.177 37.8784 22.2095 37.8007 23.1025Z" fill="#D9D9D9"/>
<path d="M34.4372 10.7689C34.4372 10.7689 36.0672 10.3503 37.1798 11.4944C38.2924 12.6664 38.2147 14.1174 37.8784 15.0103C38.163 15.3731 38.6805 16.3775 38.2924 17.5775C40 19.14 39.2497 21.5399 37.7232 23.1305C37.7232 23.1305 37.3609 21.6794 35.9121 21.5957C35.9638 21.0377 34.5666 20.5911 35.2135 19.14C34.2303 18.8889 34.2562 18.1634 34.101 17.2706C33.9715 16.3775 34.4372 10.7689 34.4372 10.7689Z" fill="#D9D9D9"/>
<path d="M33.8421 11.5502C33.8421 11.5502 35.7308 10.5178 36.8434 11.6898C37.9559 12.8618 37.6454 14.1453 37.3091 15.0382C37.5937 15.4009 38.2664 16.4335 37.8524 17.6612C37.7748 17.9402 37.2056 17.9402 36.7915 18.6658C37.8264 18.0238 38.4733 18.1913 38.7061 19.0004C39.0684 20.2561 38.2663 21.763 37.5677 22.6001C37.5677 22.5722 37.5418 22.5442 37.5418 22.5164C37.4384 22.9351 37.309 23.7442 36.5329 24.6371C36.1447 25.0836 35.8342 25.0278 35.3944 24.9162C34.877 24.7766 34.6958 24.5253 33.9714 24.107C33.5575 23.8558 33.7903 23.5488 33.7903 23.2977C33.7903 23.242 33.842 23.1581 33.9197 23.0466C33.9714 22.907 34.1266 22.684 34.3595 22.4327C34.3595 22.4327 34.6958 21.9305 35.1876 21.9583C35.6791 21.9863 36.1965 21.8747 36.326 21.7351C36.326 20.7585 35.2911 20.7306 35.6532 19.0563C35.6791 18.9726 35.8086 18.833 36.2224 18.7773C35.6014 18.6377 35.3169 18.6097 34.877 18.1634C34.5665 17.8565 34.3337 17.4658 34.256 16.9636C34.1009 16.0986 33.8421 11.5502 33.8421 11.5502Z" fill="black" fill-opacity="0.25"/>
<path d="M28.3828 9.79222C28.2276 9.56892 27.4256 8.45282 25.899 8.00635C25.4591 7.86675 25.1746 8.25746 24.7348 8.53652C24.6054 8.45282 24.0362 8.17375 23.7258 8.36897C23.4153 8.56419 23.2084 8.75969 22.8978 8.89915C22.7425 8.81544 22.3286 8.81544 21.9922 8.95491C21.6559 9.06656 21.1384 9.31767 20.6468 10.0432C20.3364 11.2431 26.1318 10.3501 26.1318 10.3501L28.3828 9.79222Z" fill="#D9D9D9"/>
<path d="M28.4347 9.79223C27.6066 9.48522 27.736 8.45282 25.899 8.28541C25.5367 8.25747 25.3039 8.56434 25.0452 8.75969C25.1746 8.89929 25.3039 9.12246 25.3815 9.34562C25.1487 9.0667 24.7347 8.7038 24.3206 8.62009C23.9326 8.53653 23.6738 8.8434 23.2598 9.0667C23.3373 9.15027 23.4151 9.28987 23.5185 9.45741C23.1562 9.2063 22.8976 9.1226 22.406 9.31781C22.0696 9.42933 21.4228 9.73634 20.9312 10.4898C20.6208 11.6898 26.1576 10.3502 26.1576 10.3502L28.4347 9.79223Z" fill="black" fill-opacity="0.25"/>
<path d="M33.2989 10.2387C33.2989 10.2387 33.2989 9.93171 33.273 9.65278C33.273 9.59702 33.066 9.45743 33.066 9.40167L33.0143 9.34577C33.0143 9.34577 33.4283 9.09466 33.7388 9.23426C34.075 9.34577 34.2561 9.82019 34.2561 9.82019C34.8512 9.59702 34.9029 9.84814 35.1876 10.183C35.8086 10.0434 35.8861 10.2945 36.2743 10.9085C36.2743 10.9085 35.8086 10.8248 34.9031 10.9921C34.0233 11.1315 33.2989 10.2108 33.2989 10.2387Z" fill="#D9D9D9"/>
<path d="M33.1953 10.0991C33.1953 10.0991 33.3506 9.95947 33.2987 9.93152C33.5833 9.76411 33.9715 9.5689 34.1526 10.0991C34.7477 9.87577 34.8253 10.1828 35.1099 10.5177C35.8343 10.155 35.886 10.6013 35.9378 10.7967C35.705 10.7967 35.3687 10.8246 34.9029 10.8804C34.0233 11.02 33.1694 10.0711 33.1953 10.0991Z" fill="black" fill-opacity="0.25"/>
<path d="M24.3984 9.40149C24.3984 9.40149 25.8732 9.95947 27.1151 9.87577C28.357 9.76425 30.4786 9.6526 31.617 10.3781C31.617 10.3781 32.7813 9.93153 33.868 10.2385C34.9548 10.5454 36.9469 12.5546 36.3519 14.6753C36.3001 14.8149 35.9638 15.038 35.5757 15.1776C35.5757 15.1776 35.7828 16.1263 35.4205 16.9076C35.0582 17.6611 34.2562 19.1122 34.2303 21.1212C34.2045 21.456 34.1528 22.1536 34.1009 22.4884C32.0828 22.4049 28.9781 21.5955 25.925 21.6514C25.9508 21.2888 25.9767 21.0655 26.0026 20.7027H26.0801C25.9249 19.7818 25.8732 19.3074 25.7178 18.6098C24.7347 17.9402 23.6997 17.1589 22.8202 15.6799C21.9663 14.2009 24.3984 9.40149 24.3984 9.40149ZM34.3855 24.4698C34.3855 24.4698 35.9897 30.6646 34.1009 33.2597C34.1009 33.2597 34.3855 34.4595 33.7387 35.7432C33.6352 36.3012 33.5057 36.8035 33.4282 37.3615C33.0919 39.6776 32.5225 40.6542 32.3673 44.3654L30.8148 44.3376C30.8148 44.3376 30.6337 41.6588 30.0904 40.2357C29.7801 39.4266 28.5638 38.3382 28.6158 37.25C28.6675 36.4128 28.8227 35.7152 30.1424 34.599C30.2458 32.9807 28.7451 31.4458 28.9781 25.4185L34.3855 24.4698Z" fill="#D9D9D9"/>
<path d="M33.9198 24.2186C34.3338 27.0648 35.291 31.2784 33.5575 33.3432C33.6598 33.8667 33.6686 34.4066 33.5833 34.9337C33.5316 35.2685 33.4281 35.6313 33.2988 36.0218C33.04 36.6916 32.9365 37.6683 32.8589 38.2542C32.5225 40.5702 32.5225 40.682 32.3673 44.3933L30.8148 44.3653C30.8148 44.3653 30.6337 41.6865 30.0904 40.2635C29.7801 39.4543 29.1332 38.7567 29.0815 37.6684C29.0298 36.8314 29.573 35.1571 30.8668 35.2129C30.7892 31.8365 29.3402 32.5061 28.9521 25.4743L33.9198 24.2186ZM24.3984 9.40149C24.3984 9.40149 24.9676 9.59685 25.5885 9.6526C26.2096 9.70836 26.8823 9.6526 27.4773 9.62466C28.7192 9.51314 30.4786 9.37354 31.6429 10.0991C31.6429 10.0991 32.2897 9.87577 32.9883 9.93153C33.2988 9.95947 33.6094 10.2385 33.9715 10.3502C35.1099 10.6571 36.1966 12.694 35.7049 14.5358C35.6532 14.6754 35.2909 14.5358 34.8769 14.6754C34.9544 15.0661 35.0064 15.9591 34.5923 16.9078C34.1525 17.8566 33.5833 19.0844 33.6867 21.4284C30.9701 21.2888 29.7541 21.0935 27.0632 20.9539C26.8303 19.9214 26.675 18.889 26.6492 18.3588C27.0115 18.1635 27.2183 17.9962 27.5031 17.6612C26.7269 17.8008 26.4164 17.7449 25.9506 17.4659C25.4849 17.1868 24.6569 16.2939 24.243 15.708C24.1913 15.6521 23.9067 16.5728 23.2599 16.6009C23.027 16.2381 24.0101 15.2056 23.829 14.815C23.1823 13.3918 24.3984 9.40149 24.3984 9.40149Z" fill="black" fill-opacity="0.25"/>
<path d="M34.1266 21.9025C34.1266 21.9025 34.1783 22.9071 34.1783 23.1582C34.1783 23.4373 34.3854 24.2743 34.4112 24.665C34.1266 25.1952 32.8847 26.3952 30.6337 26.8416C28.4086 27.3438 25.4591 23.5769 25.4591 23.5769C25.5367 23.2141 25.7955 22.1536 25.9766 21.5956C26.0025 21.5399 26.0542 21.4003 26.0542 21.3445C26.2872 20.9818 34.1266 21.9025 34.1266 21.9025Z" fill="#D9D9D9"/>
<path d="M33.5575 21.9864C33.5575 22.684 33.6609 23.1863 33.7387 23.6328C33.868 24.442 34.0749 24.9722 34.0749 25.5024C34.0749 27.1207 32.1086 26.8417 30.4526 26.8976C28.2275 27.3999 26.3387 23.6328 26.3387 23.6328C26.494 22.991 26.5975 22.2656 26.8303 21.6516C26.8561 21.3168 26.9079 20.8982 26.9337 20.7029C30.0903 20.7029 32.3154 20.8982 33.6091 21.0376C33.6609 21.3446 33.6092 21.8747 33.5575 21.9864Z" fill="black" fill-opacity="0.25"/>
<path d="M31.0737 25.5859C31.0737 25.5859 29.7024 22.2933 25.5885 23.27C24.6054 26.2557 23.2858 29.688 24.1396 33.3992C23.2858 34.6549 22.3026 35.3527 22.3026 37.6686C22.3026 39.9846 22.4061 40.3753 22.4061 40.3753L25.4333 40.5429C25.4333 40.5429 26.4164 39.1757 26.8045 37.6967C26.908 37.278 27.0115 36.5247 26.9339 35.6597C27.0373 35.4923 27.4772 35.1017 27.529 34.3482C27.529 34.3482 29.0038 33.5112 29.8576 31.4742C30.6598 29.6321 30.4528 28.0416 31.0737 25.5859Z" fill="#D9D9D9"/>
<path d="M31.0736 25.5859C30.9961 25.2791 29.9611 22.2654 26.1319 23.1582C23.881 29.6321 24.7089 32.3109 25.0452 33.4828C23.5186 35.5755 22.8201 36.022 23.1307 40.2635H25.1488C26.0802 38.673 26.2872 38.0869 26.3389 35.9942C26.3389 35.9105 26.0544 36.1616 25.8473 36.4407C26.0027 35.5757 26.4424 35.4083 26.7788 34.8781C26.934 34.6548 27.0633 34.32 27.0633 33.8735C28.8744 32.562 29.5472 30.9156 29.9352 29.2134C30.2458 28.0416 30.6079 26.1161 31.0736 25.5859Z" fill="black" fill-opacity="0.25"/>
<path d="M24.683 21.0934C24.683 21.0934 25.3817 21.1212 26.0027 21.3445C26.5978 21.5677 26.5978 21.7071 26.8306 21.9863C27.0635 22.2655 27.6327 22.6839 27.5293 23.1024C27.4774 23.3257 27.3481 23.3815 27.167 23.5768C27.0894 23.6606 26.5201 24.3302 26.3907 24.4139C26.3131 24.4696 26.2096 24.5535 26.132 24.6092L25.7439 24.8883C25.4852 25.0279 25.3041 25.1116 25.0195 25.0837C25.0195 25.0837 24.3727 25.0557 23.9586 24.5814C23.9586 24.5814 23.9069 24.3581 24.0104 24.2466C24.0104 24.2466 23.467 23.7443 23.3118 23.4094C23.1565 23.0748 23.1565 22.6003 23.2601 22.3492C23.3118 22.0978 24.3208 21.4003 24.683 21.0934ZM25.33 48.2442L25.2524 48.9419C25.2524 48.9419 25.0195 49.2488 23.286 49.221C21.5266 49.193 21.0609 48.6071 20.9057 48.3001L20.8023 47.5746C20.8023 47.5746 21.1387 47.0444 21.2163 47.0444C21.7855 47.1001 23.726 47.9373 25.0715 48.1605C25.2005 48.1605 25.2263 48.2162 25.33 48.2442ZM29.0815 46.8211C29.0815 47.1279 29.0556 47.1279 29.0556 47.435C29.366 47.6861 30.1424 47.8257 31.617 47.7976C33.7645 47.7418 35.7568 48.4953 38.1888 48.0487L38.2147 47.5465L37.9819 47.5187L29.366 46.7652L29.0815 46.8211Z" fill="#D9D9D9"/>
<path d="M30.9703 47.7977H31.6171C33.0144 47.742 34.3339 48.0768 35.7568 48.1605C36.5072 48.1326 37.4386 47.9372 37.361 47.3513L30.013 46.6815C29.5731 47.2117 29.9094 47.6581 30.9703 47.7977ZM22.5356 36.0501C22.7684 36.2175 24.3467 37.2221 26.9082 37.0825C26.8563 37.6126 26.8823 38.6452 25.7439 40.4589C25.1747 41.3518 24.683 42.9145 24.5796 44.8958C24.6055 45.3422 24.8383 45.7328 24.5279 46.3189C24.6313 46.6815 25.0452 47.407 25.2523 47.8535C25.4592 48.3001 25.5627 48.8023 24.1914 48.8303C22.7942 48.8581 20.5432 48.6907 20.8538 47.5188C21.0092 46.9049 21.4489 46.2631 21.5007 46.0119C21.5524 45.7608 21.5524 45.0074 21.9922 44.5051C22.3804 43.1099 22.2509 41.7705 22.1735 40.5148C22.044 39.2032 22.0181 37.1104 22.5356 36.0501ZM24.9418 13.3081C26.7789 10.6571 25.2264 8.5365 22.277 9.17819C21.0868 9.42931 19.8967 10.3224 19.8189 11.9407C19.4309 11.9965 18.5512 12.0522 18.1113 13.7824C17.7751 15.1218 17.594 15.3729 16.9987 16.0425C16.6107 16.5169 17.0247 17.4936 17.3092 18.1913C18.2666 20.591 21.2161 20.8142 23.2083 22.628C23.881 22.4327 24.5796 21.6236 24.7866 21.0934C23.1048 18.9446 23.467 18.1076 22.7942 16.9915C23.5188 16.7123 25.1747 15.6241 24.9418 13.3081Z" fill="#D9D9D9"/>
<path d="M24.5795 13.1407C24.6829 12.9731 24.864 12.6105 24.9418 12.4709C24.9677 12.4429 25.2522 12.9731 25.2781 12.9453C25.9766 11.7174 26.1578 9.93153 25.3556 9.76412C25.1745 9.73617 24.8383 9.65261 24.5536 9.54082C24.0362 9.34546 23.5706 9.34546 22.7425 9.51301C21.6041 9.73617 20.4657 10.6291 20.4657 11.9128C20.4657 11.9965 21.2676 12.2476 21.5006 13.2801C21.1124 12.6941 20.4397 12.0522 19.6376 12.6103C18.7838 13.1963 19.2237 14.5357 18.0853 15.9309C17.6971 16.4053 17.7489 16.9634 18.1627 18.0795C18.8355 19.8376 22.0179 20.7863 23.7514 22.4605C24.1654 22.2651 24.4499 21.8187 24.657 21.4838C23.4927 20.1724 23.0269 18.9445 22.6907 18.0516C22.2767 17.0191 21.8109 16.4332 20.9053 15.6517C21.3711 15.847 21.7334 16.0424 21.9402 16.2098C22.173 16.3772 22.5094 16.4051 22.82 16.2935C23.9327 15.8752 24.5278 14.2009 24.5795 13.1407Z" fill="black" fill-opacity="0.25"/>
<path d="M35.8343 13.5871C35.7567 14.6475 35.0323 14.1173 34.6442 13.9219C33.868 13.5592 33.0917 13.3081 32.1862 13.3081C31.2806 13.3081 30.1163 13.3918 29.1074 13.6708C27.7102 14.0894 27.2961 14.0615 26.6752 13.7266C26.0543 13.3638 24.9678 12.4709 24.9678 12.4709C24.9678 12.4709 24.9418 12.7499 25.2006 13.1127C25.5368 13.5592 26.2873 14.1173 27.2962 14.4799C27.7878 14.6475 28.176 14.5357 28.6159 14.4242C30.9186 13.8103 33.3506 13.6986 35.3946 15.0381C35.4981 15.0938 35.8604 14.9264 36.0156 14.6753C36.2224 14.3127 35.8343 13.5871 35.8343 13.5871Z" fill="#D9D9D9"/>
<path d="M24.0621 24.2186C24.2691 24.3582 24.5278 24.4419 24.8123 24.693C24.8123 24.693 24.5795 24.693 24.4761 24.5815C24.3467 24.4978 24.0879 24.2467 24.0621 24.2186Z" fill="#0A1825"/>
<path d="M31.5394 2.0906C31.4618 1.83949 30.8925 1.39288 29.5731 1.39288C28.15 1.39288 27.736 1.8673 27.7102 2.11841C27.7102 2.20212 27.6067 3.09519 27.5808 3.45782C27.5808 3.45782 27.5808 3.90429 27.6066 4.57393C27.6325 5.0204 27.736 5.27151 27.7877 5.85758C27.8394 6.47132 27.9948 6.86203 28.2793 7.3644C28.4088 7.44796 28.5122 7.53181 28.6416 7.55975C29.1591 7.67127 30.0646 7.69921 30.5562 7.55975C30.8408 7.47605 31.203 6.94587 31.2807 6.47146C31.384 5.88553 31.4876 5.46687 31.5135 5.10424C31.5652 4.74161 31.5911 3.93224 31.6169 3.70894C31.6946 3.09519 31.5652 2.14636 31.5394 2.0906Z" fill="black" fill-opacity="0.25"/>
<path d="M28.8227 36.5802C28.8227 36.5802 30.1941 37.222 33.5835 36.6639C33.5835 36.6639 32.6262 41.8541 33.0661 44.4491C33.0661 44.4491 33.5059 45.1189 36.7659 46.4024C36.7659 46.4024 38.2148 46.7931 38.1631 47.5745C38.1631 47.5745 38.2148 47.7419 36.4555 47.686C34.6962 47.6302 33.0402 47.2953 31.8759 47.2953C30.7116 47.2953 29.4697 47.3511 29.2627 46.9885C29.0299 46.6536 29.3144 45.7885 29.6508 45.2862C30.0132 44.7561 29.9095 44.3653 29.8838 43.4167C29.8059 40.9332 28.0465 38.3661 28.8227 36.5802Z" fill="#D9D9D9"/>
<path d="M28.5381 37.0546C28.3569 37.3337 28.5638 38.3939 28.8226 39.4265C29.0813 40.4589 29.6507 41.0729 29.78 42.7749C29.9093 44.4491 29.9352 44.6724 29.4953 45.6489C29.0554 46.6254 28.9261 47.5185 30.4526 47.5465C31.979 47.5744 32.8071 47.5185 34.3595 47.7698C35.9119 48.0209 36.4552 48.1046 37.3091 47.9651C38.163 47.8257 38.344 47.5185 37.9818 47.2396C37.6195 46.9605 36.1189 46.6537 35.4721 46.0954C34.851 45.5932 33.0918 44.756 33.066 44.5328C32.9884 43.7794 32.9624 41.0448 33.0918 40.1518C33.2212 39.2588 33.4022 37.9753 33.454 37.6404C33.5059 37.3056 33.7645 36.9707 33.3246 37.0823C32.8848 37.1938 31.2289 37.4451 29.987 37.3614C28.7451 37.2778 28.6158 36.9708 28.5381 37.0546Z" fill="black" fill-opacity="0.25"/>
<path opacity="0.3" d="M29.4178 45.677C29.8576 45.9002 30.5045 46.0677 30.9961 46.0677C30.9961 46.0677 30.8148 46.9886 31.0995 47.5466C31.384 48.1047 29.0296 47.7699 29.0296 47.7699L28.9263 45.7887L29.4178 45.677ZM36.2742 48.0768C36.6882 47.9372 36.9729 47.4349 36.6365 46.9607C36.2742 46.4862 35.9638 46.4025 36.4295 46.3747C36.8953 46.3468 38.6028 47.4629 38.6028 47.4629L37.7231 48.3279L36.2742 48.0768ZM28.4605 38.1428C29.0556 38.3661 29.9611 38.4218 30.7374 38.3939C31.5135 38.3661 32.6778 38.2543 33.4283 37.9754C34.1785 37.6963 33.868 38.2822 33.868 38.2822L33.454 38.7009C33.454 38.7009 32.4709 39.1194 30.8668 39.0916C28.9781 39.0637 28.4088 38.8405 28.4088 38.8405L28.4605 38.1428ZM28.5122 39.5381C29.1074 39.7614 30.0128 39.8171 30.7891 39.7892C31.5652 39.7614 32.6002 39.7614 33.3505 39.4544C33.661 39.3429 33.48 39.8171 33.48 39.8171L33.3505 40.0683C33.3505 40.0683 32.3414 40.459 30.7632 40.4309C28.8744 40.4031 28.5381 40.2355 28.5381 40.2355L28.5122 39.5381Z" fill="#D9D9D9"/>
<path d="M26.8046 19.9774C26.8046 20.1727 28.8227 21.2609 29.9352 21.4842C31.0478 21.7073 33.3764 21.4842 33.7386 21.4005L33.6868 21.7912C33.6868 21.7912 30.9184 22.2376 28.7968 21.6238C26.6751 21.0099 26.9081 20.8703 26.9081 20.8703L26.8046 19.9774Z" fill="#D9D9D9"/>
<path d="M22.4837 43.7795C22.7942 43.9471 23.9068 44.2539 24.6312 44.0865C24.7346 44.0586 24.6312 42.161 24.9159 41.296C25.3298 40.0961 26.0026 39.1195 26.3129 36.9989C25.2262 36.8872 23.9844 36.5802 23.3375 36.3569C22.5096 39.0916 22.7943 41.4355 22.4837 43.7795ZM24.2174 45.5376C24.3985 45.5933 24.5278 45.8165 24.5796 45.6772C24.683 45.4259 24.3985 44.9516 24.3726 44.6168V44.5889C24.1397 44.3657 22.5615 44.3378 22.665 44.4493C22.4839 44.812 22.1993 44.7563 22.0959 45.4818C22.0442 45.8444 22.4582 45.5376 22.8461 45.5096C22.1476 46.0119 21.3456 46.6538 21.2161 47.2118C21.0609 47.9931 21.3197 48.2164 22.0959 48.6351C22.7686 48.8025 23.5707 48.8304 24.1916 48.8025C24.8902 48.6629 25.0196 48.3002 24.8126 47.7979C24.5019 47.0444 24.295 46.0677 24.2174 45.5376Z" fill="black" fill-opacity="0.25"/>
<path d="M24.5019 9.28986C25.3557 9.82003 26.546 9.68057 26.9857 9.65262C27.0892 9.65262 28.1242 9.45726 28.1759 9.48507C28.2793 9.51302 28.2793 9.59673 28.2793 9.59673C28.2793 9.59673 27.8913 9.81989 27.0116 9.87565C26.1837 9.93141 25.2005 9.87565 24.6572 9.59673C24.0103 9.28986 24.5019 9.28986 24.5019 9.28986ZM33.2988 9.82003C33.4541 9.93154 34.4631 10.3502 34.903 10.8524C35.2911 11.299 35.0842 11.2711 35.0064 11.1594C34.903 11.0198 34.1009 10.4339 33.7904 10.2944C33.48 10.155 33.0918 9.90373 33.0918 9.84798C33.0918 9.79222 33.2988 9.82003 33.2988 9.82003Z" fill="#D9D9D9"/>
<path d="M24.3724 21.4003C25.1228 21.3446 25.899 21.5399 26.3906 22.0979C26.6494 22.377 27.0633 22.6838 27.0116 22.9629C27.0116 23.0466 26.8563 23.2699 26.7271 23.4373C26.6495 23.5488 26.4167 23.7999 26.3389 23.8838C26.2355 23.9675 25.8732 24.2745 25.7956 24.3302C25.718 24.3861 25.6145 24.5257 25.5369 24.5535C25.2783 24.6931 24.9936 24.5815 24.7349 24.442C24.4762 24.3024 24.7867 24.2745 24.502 24.0513C23.8035 23.5211 23.4153 23.1582 23.7 22.1258C23.7258 21.9305 24.0103 21.7072 24.3724 21.4003Z" fill="black" fill-opacity="0.25"/>
<path opacity="0.4" d="M17.7749 15.0102C15.4463 16.0148 9.52122 19.196 7.83954 20.1727C9.23668 21.1213 9.88349 23.4095 10.0905 25.7255C10.1163 25.9488 10.1422 26.1442 10.1682 26.3673C10.1939 26.5627 10.2199 26.7021 10.2456 26.786C10.2456 26.8139 10.2456 26.8697 10.2715 26.8975C11.7981 22.405 17.2573 17.6612 17.4643 17.2985C17.5677 17.1311 17.3349 16.4055 17.6971 15.7081C18.1629 14.8149 19.0686 14.4242 17.7749 15.0102ZM23.3118 36.078C24.5018 33.5108 24.5278 31.0552 24.5018 28.181C24.5018 26.9811 25.3039 25.2789 24.89 25.7533C23.3375 27.6228 19.4308 31.1389 16.6106 31.3341C20.5692 31.1947 22.1215 33.3433 23.3118 36.078Z" fill="#D9D9D9"/>
<path d="M5.56262 22.5444C7.03738 21.4003 14.67 17.0195 16.507 16.4054C18.3439 15.7636 17.7748 15.0101 17.7748 15.0101C17.7748 15.0101 10.3232 18.4702 5.87307 21.4561" fill="#D9D9D9"/>
<path opacity="0.4" d="M27.2961 14.4801C26.701 14.229 26.2354 14.9824 26.3906 15.708C26.5459 16.4335 27.9431 17.2426 27.8653 19.8936C27.8136 22.0702 27.3737 22.963 27.3737 22.963L26.3906 21.6237C26.3906 21.6237 26.2354 18.6099 25.899 18.1635C25.5628 17.717 24.5019 16.9078 24.0879 16.4892C23.6739 16.0706 24.5536 15.5126 24.5019 14.7312C24.4502 13.9778 24.9417 12.471 24.9417 12.471L27.2961 14.4801ZM30.8926 26.3672C30.8409 28.4599 31.2808 31.5574 31.4618 33.0364C31.6429 34.5153 31.8757 34.627 31.4618 35.2967C31.0478 35.9386 30.5045 36.9989 30.5045 36.9989L28.7192 36.8314C28.7192 36.8314 30.1422 34.8781 30.2197 34.5153C30.2973 34.1527 29.4953 31.3902 29.4953 31.3902L30.8926 26.3672ZM27.4515 6.83433C27.8138 7.69918 28.2535 8.08989 28.952 8.34114C29.366 8.50855 30.996 8.73186 31.6429 7.95043C31.9274 7.58767 31.7463 6.61102 31.7463 6.61102L30.2716 7.89454L28.2793 7.50396L28.0465 6.86214L27.4515 6.83433Z" fill="#D9D9D9"/>
<path d="M27.6066 8.7597C28.2793 9.23412 29.9611 9.68059 30.4268 9.7643C30.8925 9.87581 31.6428 9.23412 32.0051 9.06671C32.3932 8.87136 33.066 8.7597 33.8421 9.51318C33.9197 9.59689 33.6609 9.95965 33.6609 9.95965C33.635 9.9317 33.4798 9.9317 33.2728 9.82005C33.0658 9.70854 32.8847 9.6247 32.5743 9.65264C31.2805 9.82005 31.0736 10.2945 29.9352 10.0153C28.7968 9.73607 28.5121 9.51304 27.3997 9.5688" fill="black" fill-opacity="0.25"/>
<path d="M27.6066 8.7597C28.2793 9.23412 29.9611 9.68059 30.4268 9.7643C30.8925 9.87581 31.6428 9.23412 32.0051 9.06671C32.3932 8.87136 33.066 8.7597 33.8421 9.51318C33.9197 9.59689 33.6609 9.95965 33.6609 9.95965C33.635 9.9317 33.4798 9.9317 33.2728 9.82005C33.0658 9.70854 32.8847 9.6247 32.5743 9.65264C31.2805 9.82005 31.0736 10.2945 29.9352 10.0153C28.7968 9.73607 28.5121 9.51304 27.3997 9.5688" stroke="#D9D9D9" stroke-width="0.796779" stroke-miterlimit="10" stroke-linejoin="round"/>
<path d="M27.3738 8.84338C28.2276 9.2341 29.8835 9.65262 30.3492 9.76427C30.8149 9.87592 31.5652 9.37356 31.9275 9.12244C32.5744 8.67598 33.4022 9.03874 33.7904 9.51316C34.049 9.82003 34.1527 10.0154 34.1527 10.0991C34.1527 10.2106 33.8422 10.0991 33.8422 10.0991C33.6611 10.0154 33.454 9.98757 33.299 9.87578C33.0919 9.76427 32.8849 9.59686 32.5745 9.62467C31.2808 9.79222 31.022 10.2665 29.9096 9.98744C28.7971 9.70838 28.5124 9.45726 27.3223 9.54083" fill="black" fill-opacity="0.25"/>
<path d="M23.3635 34.9059C23.3118 34.8501 23.4152 34.7944 23.3635 34.7944C23.0273 34.7944 22.5615 34.5153 22.3026 34.1246C21.1901 32.3946 19.56 31.2506 16.6105 31.3343C12.1861 31.4458 10.4267 29.4927 10.0905 25.7535C9.90932 23.7165 9.39183 21.7353 8.33105 20.619L7.71002 21.0377C8.90011 22.1538 9.2883 23.9676 9.54705 26.4511C9.96102 30.1902 12.7553 31.9204 16.0154 31.9761C19.4048 32.0319 20.6208 32.7853 21.8885 34.6271C22.3025 35.213 22.7683 35.4084 23.1304 35.4921L23.3635 34.9059Z" fill="#D9D9D9"/>
<path opacity="0.4" d="M35.3687 16.9636C35.4463 17.3821 35.6532 18.1913 36.0672 18.5819C36.2485 18.7773 36.2743 18.833 36.119 18.833C35.9637 18.833 34.8253 18.7773 34.8253 18.7773L34.5148 18.1913L35.3687 16.9636Z" fill="#D9D9D9"/>
</g>
<defs>
<clipPath id="clip0_132_78">
<rect width="40" height="50" fill="white"/>
</clipPath>
</defs>
</svg>
