<svg width="50" height="57" viewBox="0 0 50 57" fill="none" xmlns="http://www.w3.org/2000/svg">
<g clip-path="url(#clip0_132_65)">
<path d="M4.55018 50.6166L0 0H50L45.4449 50.6086L24.9693 56.2384L4.55018 50.6166Z" fill="#010101"/>
<path d="M24.9999 52.7786L41.5452 49.1239L45.4378 14.3787H24.9999V52.7786Z" fill="#010101"/>
<path d="M24.9999 29.461H16.717L16.1449 24.3537H24.9999V19.3662H9.30408L9.45391 20.7043L10.9924 34.4484H24.9999V29.461ZM24.9999 42.414L24.9726 42.4198L18.0012 40.92L17.5556 36.9422H11.2721L12.149 44.7733L24.9711 47.6094L24.9999 47.603V42.414Z" fill="white"/>
<path d="M24.9785 29.461V34.4484H32.6862L31.9596 40.9168L24.9785 42.4182V47.607L37.8106 44.7733L37.9048 43.9306L39.3757 30.8003L39.5284 29.461H37.8416H24.9785ZM24.9785 19.3662V24.3537H40.098L40.2235 23.2327L40.5087 20.7043L40.6584 19.3662H24.9785Z" fill="white"/>
</g>
<defs>
<clipPath id="clip0_132_65">
<rect width="50" height="56.2384" fill="white"/>
</clipPath>
</defs>
</svg>
