<svg width="50" height="50" viewBox="0 0 50 50" fill="none" xmlns="http://www.w3.org/2000/svg">
<g clip-path="url(#clip0_132_74)">
<path d="M46.8107 0H3.19397C1.42937 0 0 1.42924 0 3.19367V46.8063C0 48.5661 1.42937 50 3.19397 50H46.8107C48.5706 50 50.0047 48.5708 50.0047 46.8063V3.18901C50 1.42924 48.5706 0 46.8107 0ZM22.7023 28.1797C22.7023 29.567 22.5719 30.7542 22.3065 31.7318C22.0412 32.7095 21.6407 33.4916 21.11 34.1061C20.5745 34.7114 19.9087 35.1583 19.1126 35.4376C18.3164 35.7216 17.3899 35.8613 16.333 35.8613C15.4018 35.8613 14.5637 35.7123 13.8095 35.4236C12.3335 34.8696 11.1789 33.6825 10.6714 32.1927C10.3734 31.3594 10.2291 30.4842 10.243 29.5996V28.9758H13.2368C13.2368 31.7644 14.2704 33.1611 16.3376 33.1611C16.8684 33.1611 17.334 33.1006 17.753 32.9749C18.1674 32.8445 18.5166 32.6117 18.8053 32.2579C19.094 31.9088 19.3081 31.4246 19.4571 30.7961C19.6061 30.1676 19.6806 29.3529 19.6806 28.3426V12.7374H22.7116L22.7023 28.1797ZM39.4217 32.7095C39.1051 33.3473 38.6582 33.9106 38.1088 34.3622C37.4942 34.8557 36.7865 35.2328 36.0322 35.4655C35.2174 35.7263 34.3049 35.8566 33.2945 35.8566C28.8202 35.8566 26.4596 34.0922 26.2175 30.554H29.1601C29.174 32.5512 30.5429 33.5521 33.2619 33.5521C33.8672 33.5521 34.4073 33.487 34.8682 33.352C35.3338 33.2216 35.7203 33.0354 36.0276 32.8026C36.6282 32.3696 36.982 31.676 36.9774 30.9358C36.9913 30.6099 36.9262 30.2886 36.7958 29.9907C36.6747 29.7486 36.4373 29.5391 36.0881 29.3529C35.6225 29.1248 35.1383 28.9432 34.6354 28.8128C33.83 28.5801 33.0198 28.3566 32.205 28.1471C31.232 27.905 30.3892 27.6629 29.6862 27.4209C29.0623 27.2253 28.4756 26.932 27.9449 26.5456C27.5026 26.2151 27.1534 25.7775 26.9345 25.2747C26.7157 24.7672 26.6086 24.1294 26.6086 23.3613C26.6086 22.6862 26.753 22.0577 27.037 21.4758C27.3256 20.8985 27.7307 20.3957 28.2708 19.9674C28.8016 19.5438 29.4487 19.2132 30.203 18.9711C31.0224 18.7197 31.8791 18.5987 32.7358 18.608C37.0612 18.608 39.2634 20.1443 39.3286 23.2216H36.4326C36.3302 21.6853 35.1709 20.9125 32.9546 20.9125C32.4611 20.9125 32.0095 20.9637 31.5858 21.0615C31.1621 21.1592 30.8036 21.2989 30.4917 21.4851C30.1797 21.6667 29.9423 21.8948 29.7653 22.1648C29.5931 22.4441 29.5 22.77 29.5093 23.1006C29.5093 23.4218 29.5512 23.6872 29.6303 23.892C29.7095 24.1015 29.9004 24.2924 30.2077 24.4693C30.5103 24.6462 30.9619 24.8231 31.5579 24.9953C32.1538 25.1676 32.9686 25.3817 34.0022 25.6331C34.9986 25.8752 35.8693 26.122 36.6049 26.3827C37.3359 26.6434 37.9458 26.9553 38.4393 27.3231C38.9282 27.6862 39.2867 28.1378 39.5242 28.6639C39.757 29.1899 39.878 29.851 39.878 30.6425C39.8873 31.392 39.729 32.0763 39.4217 32.7095Z" fill="black"/>
</g>
<defs>
<clipPath id="clip0_132_74">
<rect width="50" height="50" fill="white"/>
</clipPath>
</defs>
</svg>
