<svg width="50" height="50" viewBox="0 0 50 50" fill="none" xmlns="http://www.w3.org/2000/svg">
<path d="M50 25.0045C50 22.0977 45.852 19.3429 39.4925 17.6345C40.96 11.9461 40.3078 7.42032 37.4338 5.97136C36.7713 5.63149 35.9967 5.47049 35.1508 5.47049V7.46504C35.6196 7.46504 35.9967 7.54553 36.3127 7.69759C37.6987 8.39523 38.3 11.0516 37.8312 14.4683C37.7191 15.3091 37.5357 16.1945 37.3115 17.0979C35.3139 16.6686 33.1329 16.3376 30.8398 16.123C29.4639 14.4683 28.0371 12.9657 26.6001 11.6509C29.9225 8.94082 33.0412 7.45609 35.161 7.45609V5.46155C32.3583 5.46155 28.6894 7.2146 24.9796 10.2556C21.2699 7.23249 17.6009 5.49732 14.7982 5.49732V7.49187C16.9079 7.49187 20.0367 8.96765 23.3592 11.6598C21.9323 12.9746 20.5055 14.4683 19.15 16.123C16.8467 16.3376 14.6657 16.6686 12.6682 17.1068C12.4338 16.2124 12.2605 15.3448 12.1382 14.513C11.6592 11.0964 12.2503 8.43995 13.6262 7.73336C13.9319 7.57237 14.3294 7.50081 14.7982 7.50081V5.50627C13.9421 5.50627 13.1675 5.66726 12.4949 6.00714C9.63106 7.45609 8.98899 11.9729 10.4668 17.6435C4.1276 19.3608 0 22.1066 0 25.0045C0 27.9114 4.14798 30.6662 10.5075 32.3745C9.03995 38.063 9.69221 42.5887 12.5662 44.0377C13.2287 44.3775 14.0033 44.5385 14.8594 44.5385C17.662 44.5385 21.331 42.7855 25.0408 39.7445C28.7505 42.7676 32.4195 44.5028 35.2222 44.5028C36.0783 44.5028 36.8528 44.3418 37.5255 44.0019C40.3893 42.5529 41.0314 38.0361 39.5536 32.3655C45.8724 30.6572 50 27.9024 50 25.0045ZM36.7305 19.0388C36.3534 20.1926 35.8846 21.3821 35.3547 22.5717C34.9368 21.8562 34.4986 21.1406 34.0196 20.4251C33.5508 19.7096 33.0514 19.0119 32.552 18.3322C33.9992 18.52 35.3954 18.7526 36.7305 19.0388ZM32.0628 28.5643C31.2678 29.7717 30.4525 30.9166 29.6066 31.981C28.0881 32.0972 26.5491 32.1598 25 32.1598C23.4611 32.1598 21.9221 32.0972 20.4138 31.9899C19.5679 30.9255 18.7424 29.7896 17.9474 28.5911C17.1728 27.4194 16.4696 26.2299 15.8276 25.0313C16.4594 23.8328 17.1729 22.6343 17.9372 21.4626C18.7322 20.2552 19.5475 19.1103 20.3934 18.046C21.9119 17.9297 23.4509 17.8671 25 17.8671C26.5389 17.8671 28.0779 17.9297 29.5862 18.037C30.4321 19.1014 31.2576 20.2373 32.0526 21.4358C32.8272 22.6075 33.5304 23.7971 34.1724 24.9956C33.5304 26.1941 32.8271 27.3926 32.0628 28.5643ZM35.3547 27.4015C35.905 28.6001 36.3738 29.7986 36.7611 30.9613C35.426 31.2475 34.0196 31.489 32.5622 31.6769C33.0616 30.9882 33.5609 30.2816 34.0298 29.5571C34.4986 28.8416 34.9368 28.1171 35.3547 27.4015ZM25.0204 36.945C24.0726 36.0863 23.1247 35.1293 22.1871 34.0828C23.1044 34.1186 24.042 34.1454 24.9898 34.1454C25.9478 34.1454 26.8956 34.1275 27.8231 34.0828C26.9058 35.1293 25.958 36.0863 25.0204 36.945ZM17.4378 31.6769C15.9906 31.489 14.5944 31.2565 13.2593 30.9703C13.6364 29.8165 14.1052 28.6269 14.6351 27.4373C15.053 28.1529 15.4912 28.8684 15.9702 29.5839C16.4492 30.2995 16.9384 30.9971 17.4378 31.6769ZM24.9694 13.0641C25.9172 13.9227 26.8651 14.8797 27.8027 15.9262C26.8854 15.8904 25.9478 15.8636 25 15.8636C24.042 15.8636 23.0942 15.8815 22.1667 15.9262C23.084 14.8797 24.0318 13.9227 24.9694 13.0641ZM17.4276 18.3322C16.9283 19.0209 16.4289 19.7275 15.96 20.4519C15.4912 21.1675 15.053 21.883 14.6351 22.5985C14.0848 21.4 13.616 20.2015 13.2287 19.0388C14.5638 18.7615 15.9702 18.52 17.4276 18.3322ZM8.20424 29.5303C4.59641 28.1797 2.26254 26.4087 2.26254 25.0045C2.26254 23.6003 4.59641 21.8204 8.20424 20.4788C9.08072 20.1478 10.0387 19.8527 11.0273 19.5754C11.6082 21.3285 12.3726 23.1531 13.3204 25.0224C12.3828 26.8828 11.6286 28.6984 11.0579 30.4426C10.0489 30.1653 9.09091 29.8612 8.20424 29.5303ZM13.6873 42.3114C12.3013 41.6138 11.7 38.9574 12.1688 35.5407C12.2809 34.7 12.4643 33.8145 12.6885 32.9111C14.6861 33.3405 16.8671 33.6714 19.1602 33.8861C20.5361 35.5407 21.9629 37.0433 23.3999 38.3581C20.0775 41.0682 16.9588 42.5529 14.839 42.5529C14.3803 42.544 13.9931 42.4635 13.6873 42.3114ZM37.8618 35.496C38.3408 38.9127 37.7497 41.5691 36.3738 42.2757C36.0681 42.4367 35.6706 42.5082 35.2018 42.5082C33.0921 42.5082 29.9633 41.0324 26.6409 38.3402C28.0677 37.0255 29.4945 35.5318 30.85 33.8771C33.1533 33.6625 35.3343 33.3315 37.3318 32.8933C37.5662 33.7966 37.7497 34.6642 37.8618 35.496ZM41.7856 29.5303C40.9091 29.8612 39.9511 30.1563 38.9625 30.4336C38.3816 28.6806 37.6172 26.856 36.6694 24.9866C37.607 23.1262 38.3612 21.3106 38.9319 19.5665C39.9409 19.8437 40.8989 20.1478 41.7958 20.4788C45.4036 21.8293 47.7375 23.6003 47.7375 25.0045C47.7273 26.4087 45.3934 28.1886 41.7856 29.5303Z" fill="#010101"/>
<path d="M24.9898 29.0919C27.5621 29.0919 29.6474 27.2619 29.6474 25.0045C29.6474 22.747 27.5621 20.917 24.9898 20.917C22.4175 20.917 20.3323 22.747 20.3323 25.0045C20.3323 27.2619 22.4175 29.0919 24.9898 29.0919Z" fill="#010101"/>
</svg>
