<svg width="50" height="40" viewBox="0 0 50 40" fill="none" xmlns="http://www.w3.org/2000/svg">
<path d="M43.0424 22.9691C41.2942 22.9797 39.7804 23.4278 38.5108 24.095C38.042 23.1047 37.5732 22.2395 37.4951 21.5933C37.4072 20.8428 37.2998 20.3841 37.4072 19.4878C37.5146 18.5913 38.0029 17.3196 38.0029 17.2154C37.993 17.1215 37.8954 16.6629 36.8895 16.6525C35.8837 16.6421 35.0144 16.861 34.9167 17.1424C34.819 17.4238 34.6237 18.0701 34.4967 18.7372C34.3209 19.717 32.4848 23.188 31.4398 25.0121C31.098 24.3033 30.805 23.6779 30.7463 23.1775C30.6585 22.4271 30.551 21.9684 30.6585 21.072C30.7659 20.1755 31.2543 18.904 31.2543 18.7997C31.2445 18.7059 31.1468 18.2473 30.141 18.2369C29.1349 18.2264 28.2658 18.4453 28.1681 18.7268C28.0705 19.0082 27.9631 19.6753 27.7482 20.3216C27.543 20.9678 25.1014 26.7633 24.4666 28.2747C24.1443 29.046 23.8611 29.661 23.6559 30.0779C23.4508 30.4949 23.6462 30.1092 23.6266 30.1509C23.4508 30.5053 23.3532 30.7033 23.3532 30.7033V30.7139C23.2164 30.9745 23.07 31.2245 23.0015 31.2245C22.9527 31.2245 22.855 30.5262 23.021 29.5673C23.3824 27.5555 24.2614 24.4181 24.2517 24.3034C24.2517 24.2513 24.4176 23.6988 23.6851 23.4174C22.9722 23.136 22.7184 23.6051 22.6597 23.6051C22.6011 23.6051 22.5522 23.7718 22.5522 23.7718C22.5522 23.7718 23.3433 20.2384 21.0384 20.2384C19.593 20.2384 17.6006 21.9166 16.6142 23.4488C15.9892 23.8136 14.6609 24.5849 13.2545 25.4084C12.7174 25.7211 12.1607 26.0547 11.6333 26.357L11.526 26.2317C8.73276 23.0525 3.56629 20.801 3.78116 16.5274C3.85929 14.9743 4.36715 10.8779 13.704 5.91631C21.3511 1.85115 27.4747 2.96646 28.5392 5.44725C30.053 8.99123 25.2674 15.5789 17.3176 16.5274C14.29 16.8922 12.698 15.6414 12.2976 15.1724C11.8777 14.6825 11.8191 14.6616 11.6628 14.7554C11.4089 14.9013 11.5651 15.3391 11.6628 15.5997C11.8972 16.2564 12.8738 17.4238 14.5341 18.0075C15.9893 18.5183 19.5444 18.7997 23.8416 17.0277C28.6565 15.0369 32.4166 9.51241 31.313 4.8948C30.1898 0.193814 22.8845 -1.34886 15.9796 1.26743C11.8678 2.83095 7.41429 5.27005 4.21088 8.47006C0.401956 12.2642 -0.203566 15.5789 0.0503623 16.9548C0.939209 21.8642 7.27756 25.0642 9.81684 27.4304C9.68988 27.5032 9.57268 27.5762 9.46525 27.6388C8.19561 28.3058 3.3612 31.0056 2.15016 33.8616C0.782848 37.0928 2.36502 39.4174 3.4198 39.7301C6.6818 40.6995 10.0219 38.9588 11.8287 36.0923C13.6257 33.2258 13.4109 29.5047 12.5808 27.8056L12.5514 27.7431L13.5475 27.1177C14.1922 26.7112 14.827 26.3359 15.3836 26.0127C15.0712 26.9195 14.8465 27.9931 14.7294 29.5567C14.5926 31.3913 15.2958 33.7678 16.2236 34.7059C16.6338 35.1123 17.1222 35.1228 17.4249 35.1228C18.4992 35.1228 18.9876 34.1742 19.5247 33.0381C20.1888 31.6518 20.7748 30.0466 20.7748 30.0466C20.7748 30.0466 20.0423 34.3932 22.0445 34.3932C22.777 34.3932 23.5094 33.3821 23.8415 32.8609V32.8713C23.8415 32.8713 23.861 32.8401 23.9001 32.7671C23.9411 32.7024 23.9802 32.6364 24.0173 32.5692V32.5483C24.3103 32.0063 24.9646 30.7659 25.9413 28.7125C27.2011 26.0649 28.4122 22.7502 28.4122 22.7502C28.4122 22.7502 28.5294 23.5633 28.8908 24.8975C29.1055 25.6898 29.5743 26.5548 29.9357 27.3991C29.6427 27.8369 29.4669 28.0872 29.4669 28.0872L29.4767 28.0976C29.2424 28.4311 28.9786 28.7856 28.7052 29.1399C27.709 30.4116 26.5175 31.8606 26.3613 32.2775C26.1757 32.7673 26.2148 33.1321 26.5761 33.4241C26.8398 33.6326 27.3086 33.6741 27.8067 33.6326C28.7052 33.5699 29.3303 33.3303 29.6428 33.1842C30.1311 32.9966 30.6878 32.7152 31.225 32.2982C32.2016 31.527 32.7974 30.4325 32.7388 28.9733C32.7095 28.1707 32.4653 27.3785 32.1625 26.628C32.2504 26.4925 32.3384 26.3569 32.4262 26.211C33.9693 23.8031 35.1609 21.1556 35.1609 21.1556C35.1609 21.1556 35.278 21.9687 35.6394 23.3029C35.8249 23.9804 36.1961 24.7206 36.5282 25.4502C35.0827 26.7115 34.1744 28.1708 33.8619 29.1297C33.2857 30.9017 33.7349 31.7043 34.5846 31.8919C34.9654 31.9753 35.5124 31.7877 35.9225 31.6001C36.4304 31.4229 37.0457 31.1205 37.6122 30.6724C38.5889 29.9011 39.5265 28.8274 39.4776 27.3786C39.4483 26.7115 39.2823 26.0548 39.0577 25.4294C40.2883 24.8874 41.8801 24.5747 43.9018 24.8352C48.2479 25.3773 49.1074 28.275 48.9414 29.4841C48.7754 30.6933 47.8671 31.3603 47.5643 31.5688C47.2615 31.7669 47.1639 31.8399 47.1932 31.9858C47.2322 32.2047 47.3689 32.1942 47.6326 32.1526C47.994 32.09 49.918 31.1624 49.9961 28.9319C50.1133 26.065 47.5643 22.938 43.0424 22.9691ZM9.52385 35.0291C8.08817 36.7073 6.06651 37.3431 5.20706 36.8011C4.27925 36.2278 4.64051 33.7574 6.40834 31.975C7.48265 30.891 8.87926 29.8903 9.79731 29.2753C10.0024 29.1398 10.3149 28.9419 10.6861 28.702C10.7447 28.6605 10.7837 28.6395 10.7837 28.6395C10.8521 28.5978 10.9302 28.5457 11.0084 28.4936C11.6627 31.0369 11.0376 33.2675 9.52385 35.0291ZM20.0228 27.4095C19.5247 28.7125 18.4699 32.0584 17.8351 31.8708C17.2881 31.7144 16.9561 29.1815 17.7276 26.6799C18.1182 25.4185 18.9484 23.9177 19.4367 23.3338C20.2279 22.3957 21.0873 22.083 21.3022 22.4687C21.5561 22.9691 20.3353 26.5965 20.0228 27.4095ZM28.6857 31.8291C28.4708 31.9439 28.2755 32.0271 28.1876 31.9647C28.1192 31.923 28.2754 31.7667 28.2754 31.7667C28.2754 31.7667 29.3595 30.5263 29.7892 29.953C30.0334 29.6195 30.3263 29.2338 30.6389 28.796V28.921C30.639 30.4219 29.2912 31.4226 28.6857 31.8291ZM35.3658 30.203C35.2096 30.0779 35.2292 29.6923 35.7565 28.4831C35.9617 28.0037 36.4304 27.2011 37.241 26.4401C37.3387 26.7528 37.3974 27.055 37.3875 27.3366C37.3778 29.2128 36.1277 29.9112 35.3658 30.203Z" fill="#010101"/>
</svg>
