<svg width="50" height="40" viewBox="0 0 50 40" fill="none" xmlns="http://www.w3.org/2000/svg">
<path d="M25 0C18.3331 0 14.1666 4.44454 12.4997 13.3328C15 8.88824 17.9167 7.22216 21.2498 8.33288C23.1518 8.96662 24.5111 10.807 26.016 12.8433C28.4669 16.1604 31.3036 19.9996 37.5003 19.9996C44.1666 19.9996 48.3337 15.555 50 6.66597C47.5003 11.1105 44.5836 12.7774 41.2498 11.6667C39.3485 11.033 37.9892 9.1926 36.4843 7.15629C34.0334 3.83915 31.1961 0 25 0ZM12.4997 19.9996C5.83344 19.9996 1.66625 24.4441 0 33.3332C2.49969 28.8887 5.41641 27.2217 8.75016 28.3333C10.6515 28.9679 12.0108 30.8074 13.5157 32.8429C15.9666 36.16 18.8039 40 25 40C31.6669 40 35.8334 35.5555 37.5003 26.6664C35 31.1109 32.0833 32.7778 28.7502 31.6663C26.8482 31.0334 25.4889 29.1922 23.984 27.1567C21.5331 23.8396 18.6964 19.9996 12.4997 19.9996Z" fill="black"/>
</svg>
