<svg width="44" height="32" viewBox="0 0 44 32" fill="none" xmlns="http://www.w3.org/2000/svg">
<path d="M22 0C16.1332 0 12.4666 3.55563 10.9997 10.6662C13.2 7.11059 15.7667 5.77773 18.6999 6.66631C20.3736 7.1733 21.5697 8.64558 22.8941 10.2746C25.0509 12.9283 27.5472 15.9997 33.0003 15.9997C38.8666 15.9997 42.5337 12.444 44 5.33278C41.8003 8.88841 39.2336 10.2219 36.2999 9.33336C34.6267 8.82637 33.4305 7.35408 32.1062 5.72503C29.9494 3.07132 27.4525 0 22 0ZM10.9997 15.9997C5.13343 15.9997 1.4663 19.5553 0 26.6666C2.19973 23.1109 4.76644 21.7774 7.70014 22.6666C9.37332 23.1743 10.5695 24.6459 11.8938 26.2743C14.0506 28.928 16.5475 32 22 32C27.8669 32 31.5334 28.4444 33.0003 21.3331C30.8 24.8887 28.2333 26.2223 25.3001 25.333C23.6264 24.8267 22.4303 23.3537 21.1059 21.7254C18.9491 19.0716 16.4528 15.9997 10.9997 15.9997Z" fill="black"/>
</svg>
