<svg width="50" height="50" viewBox="0 0 50 50" fill="none" xmlns="http://www.w3.org/2000/svg">
<g clip-path="url(#clip0_132_131)">
<path d="M24.9434 22.1704C22.9909 22.1704 21.5832 23.4437 21.5832 25.3537C21.5832 27.2637 23.1678 28.5371 25.1202 28.5371C26.2998 28.5371 27.3397 28.0702 27.9835 27.2832L26.6306 26.5015C26.2733 26.8923 25.7304 27.1205 25.1202 27.1205C24.2731 27.1205 23.5533 26.6783 23.2863 25.9709H28.2417C28.2806 25.7729 28.3036 25.5677 28.3036 25.3519C28.3036 23.4437 26.8958 22.1704 24.9434 22.1704ZM23.2703 24.7347C23.4914 24.0291 24.0962 23.5852 24.9416 23.5852C25.7887 23.5852 26.3936 24.0291 26.6129 24.7347H23.2703ZM43.987 22.1704C42.0345 22.1704 40.6267 23.4437 40.6267 25.3537C40.6267 27.2637 42.2113 28.5371 44.1638 28.5371C45.3434 28.5371 46.3833 28.0702 47.0271 27.2832L45.6741 26.5015C45.3169 26.8923 44.7739 27.1205 44.1638 27.1205C43.3167 27.1205 42.5969 26.6783 42.3298 25.9709H47.2853C47.3242 25.7729 47.3472 25.5677 47.3472 25.3519C47.3472 23.4437 45.9394 22.1704 43.987 22.1704ZM42.3157 24.7347C42.5368 24.0291 43.1416 23.5852 43.987 23.5852C44.8341 23.5852 45.4389 24.0291 45.6582 24.7347H42.3157ZM35.4131 25.3537C35.4131 26.4148 36.1064 27.1222 37.1816 27.1222C37.9103 27.1222 38.4567 26.7915 38.7379 26.2521L40.0962 27.0356C39.5338 27.9729 38.4797 28.5371 37.1816 28.5371C35.2274 28.5371 33.8214 27.2637 33.8214 25.3537C33.8214 23.4437 35.2292 22.1704 37.1816 22.1704C38.4797 22.1704 39.532 22.7345 40.0962 23.6718L38.7379 24.4553C38.4567 23.9159 37.9103 23.5852 37.1816 23.5852C36.1081 23.5852 35.4131 24.2926 35.4131 25.3537ZM50 20.225V28.3602H48.4083V20.225H50ZM6.5347 19.3407L13.0694 30.6593H-3.05176e-05L6.5347 19.3407ZM22.8724 20.225L17.9718 28.7139L13.0712 20.225H14.9087L17.9718 25.5306L21.0349 20.225H22.8724ZM33.2909 22.3472V24.0609C33.114 24.0096 32.9265 23.9743 32.7249 23.9743C31.6974 23.9743 30.9564 24.6817 30.9564 25.7428V28.3602H29.3647V22.3472H30.9564V23.9743C30.9564 23.0758 32.0016 22.3472 33.2909 22.3472Z" fill="#010101"/>
</g>
<defs>
<clipPath id="clip0_132_131">
<rect width="50" height="50" fill="white"/>
</clipPath>
</defs>
</svg>
