<svg width="31" height="31" viewBox="0 0 31 31" fill="none" xmlns="http://www.w3.org/2000/svg">
<g clip-path="url(#clip0_119_3)">
<path fill-rule="evenodd" clip-rule="evenodd" d="M25.8845 4.87187C23.0646 2.06201 19.3143 0.513786 15.3188 0.512207C7.08619 0.512207 0.385855 7.18051 0.382561 15.377C0.381463 17.997 1.06927 20.5545 2.37626 22.8088L0.257324 30.5122L8.17525 28.445C10.3568 29.6293 12.813 30.2534 15.3128 30.2545H15.319C23.5508 30.2545 30.2517 23.5853 30.255 15.3888C30.2566 11.4167 28.7045 7.68172 25.8845 4.87187ZM15.319 27.7437H15.3139C13.0863 27.7428 10.9014 27.1472 8.99541 26.0215L8.54205 25.7537L3.84351 26.9804L5.09766 22.4209L4.80245 21.9535C3.55976 19.9862 2.9034 17.7124 2.90437 15.3779C2.9071 8.56534 8.4762 3.02293 15.3239 3.02293C18.6397 3.02418 21.7567 4.31109 24.1006 6.64654C26.4445 8.98199 27.7345 12.0864 27.7333 15.3878C27.7304 22.2009 22.1614 27.7437 15.319 27.7437ZM22.1285 18.4899C21.7553 18.304 19.9204 17.4054 19.5783 17.2814C19.2363 17.1575 18.9875 17.0955 18.7386 17.4674C18.4899 17.8392 17.7747 18.6759 17.5569 18.9237C17.3392 19.1717 17.1215 19.2027 16.7483 19.0167C16.3751 18.8308 15.1726 18.4386 13.7471 17.1731C12.6377 16.1883 11.8887 14.9718 11.671 14.6C11.4533 14.2281 11.6478 14.027 11.8346 13.8419C12.0025 13.6755 12.2078 13.4081 12.3944 13.1911C12.581 12.9742 12.6432 12.8193 12.7676 12.5714C12.892 12.3235 12.8298 12.1066 12.7365 11.9207C12.6432 11.7348 11.8969 9.90646 11.5858 9.16276C11.2829 8.43846 10.9752 8.53646 10.7462 8.52512C10.5287 8.51435 10.2797 8.51204 10.0309 8.51204C9.78209 8.51204 9.37779 8.60502 9.03568 8.97685C8.69361 9.34872 7.72954 10.2474 7.72954 12.0756C7.72954 13.9039 9.06679 15.6701 9.25341 15.918C9.43998 16.1659 11.885 19.9178 15.6288 21.5267C16.5192 21.9094 17.2143 22.1379 17.7563 22.3092C18.6504 22.5918 19.4639 22.5519 20.107 22.4563C20.824 22.3497 22.315 21.5577 22.6261 20.6901C22.9371 19.8224 22.9371 19.0787 22.8437 18.9238C22.7505 18.7689 22.5017 18.6759 22.1285 18.4899Z" fill="black"/>
</g>
<defs>
<clipPath id="clip0_119_3">
<rect width="30" height="30" fill="white" transform="translate(0.256104 0.512207)"/>
</clipPath>
</defs>
</svg>
